<mxfile host="app.diagrams.net" modified="2022-11-23T16:26:57.412Z" agent="5.0 (X11; Linux x86_64) AppleWebKit/537.36 (KHTML, like Gecko) Chrome/106.0.0.0 Safari/537.36" etag="ef4VzmMDFfXF_ovdRniq" version="20.6.0" type="github">
  <diagram id="p-Q8rodp78rbxrCdaMyr" name="Page-1">
    <mxGraphModel dx="745" dy="411" grid="1" gridSize="10" guides="1" tooltips="1" connect="1" arrows="1" fold="1" page="1" pageScale="1" pageWidth="850" pageHeight="1100" math="0" shadow="0">
      <root>
        <mxCell id="0" />
        <mxCell id="1" parent="0" />
        <mxCell id="2" value="SP" style="rounded=0;whiteSpace=wrap;html=1;fontSize=26;fillColor=#007FFF;" parent="1" vertex="1">
          <mxGeometry x="150" y="160" width="120" height="60" as="geometry" />
        </mxCell>
        <mxCell id="4" value="TCP&lt;font style=&quot;font-size: 16px;&quot;&gt;&lt;br style=&quot;font-size: 16px;&quot;&gt;&lt;/font&gt;" style="endArrow=classic;startArrow=classic;html=1;fontSize=16;entryX=0.25;entryY=0;entryDx=0;entryDy=0;exitX=0.75;exitY=1;exitDx=0;exitDy=0;" parent="1" source="2" target="19" edge="1">
          <mxGeometry x="-0.3736" width="50" height="50" relative="1" as="geometry">
            <mxPoint x="190" y="220" as="sourcePoint" />
            <mxPoint x="305" y="280" as="targetPoint" />
            <mxPoint as="offset" />
          </mxGeometry>
        </mxCell>
        <mxCell id="6" value="&lt;br&gt;" style="endArrow=classic;html=1;fontSize=16;exitX=0.5;exitY=1;exitDx=0;exitDy=0;entryX=0.75;entryY=0;entryDx=0;entryDy=0;" parent="1" source="28" target="2" edge="1">
          <mxGeometry x="-1" y="-20" width="50" height="50" relative="1" as="geometry">
            <mxPoint x="320" y="180" as="sourcePoint" />
            <mxPoint x="270" y="165" as="targetPoint" />
            <mxPoint x="20" y="20" as="offset" />
          </mxGeometry>
        </mxCell>
        <mxCell id="8" value="" style="endArrow=classic;html=1;fontSize=16;exitX=0.25;exitY=0;exitDx=0;exitDy=0;" parent="1" source="2" edge="1">
          <mxGeometry x="1" y="-22" width="50" height="50" relative="1" as="geometry">
            <mxPoint x="200" y="130" as="sourcePoint" />
            <mxPoint x="180" y="120" as="targetPoint" />
            <mxPoint x="-2" y="-10" as="offset" />
          </mxGeometry>
        </mxCell>
        <mxCell id="9" value="CL" style="rounded=0;whiteSpace=wrap;html=1;fontSize=26;fillColor=#52BD94;" parent="1" vertex="1">
          <mxGeometry x="190" y="405" width="60" height="60" as="geometry" />
        </mxCell>
        <mxCell id="16" value="" style="endArrow=none;dashed=1;html=1;dashPattern=1 3;strokeWidth=2;fontSize=16;exitX=1;exitY=0.5;exitDx=0;exitDy=0;" parent="1" source="18" edge="1">
          <mxGeometry width="50" height="50" relative="1" as="geometry">
            <mxPoint x="220" y="345" as="sourcePoint" />
            <mxPoint x="280" y="345" as="targetPoint" />
          </mxGeometry>
        </mxCell>
        <mxCell id="18" value="SS" style="rounded=0;whiteSpace=wrap;html=1;fontSize=26;fillColor=#FFB020;" parent="1" vertex="1">
          <mxGeometry x="130" y="315" width="100" height="60" as="geometry" />
        </mxCell>
        <mxCell id="19" value="SS" style="rounded=0;whiteSpace=wrap;html=1;fontSize=26;fillColor=#FFB020;" parent="1" vertex="1">
          <mxGeometry x="280" y="315" width="100" height="60" as="geometry" />
        </mxCell>
        <mxCell id="24" value="" style="endArrow=classic;html=1;rounded=1;labelBorderColor=default;fontSize=16;entryX=0;entryY=0.25;entryDx=0;entryDy=0;exitX=1;exitY=0.25;exitDx=0;exitDy=0;" parent="1" source="9" target="9mBYy3MYTDiPbNTP9v6o-39" edge="1">
          <mxGeometry relative="1" as="geometry">
            <mxPoint x="57.16" y="598.5699999999999" as="sourcePoint" />
            <mxPoint x="157.16" y="510" as="targetPoint" />
          </mxGeometry>
        </mxCell>
        <mxCell id="26" value="UDP" style="endArrow=classic;html=1;rounded=1;labelBorderColor=none;fontSize=14;entryX=1;entryY=0.75;entryDx=0;entryDy=0;exitX=0;exitY=0.75;exitDx=0;exitDy=0;" parent="1" source="9mBYy3MYTDiPbNTP9v6o-39" target="9" edge="1">
          <mxGeometry x="0.0833" y="-15" relative="1" as="geometry">
            <mxPoint x="199.99999999999991" y="539.82" as="sourcePoint" />
            <mxPoint x="187.1600000000001" y="540" as="targetPoint" />
            <mxPoint as="offset" />
          </mxGeometry>
        </mxCell>
        <mxCell id="28" value=".conf" style="ellipse;whiteSpace=wrap;html=1;aspect=fixed;fontSize=15;fillColor=#E6E6E6;" parent="1" vertex="1">
          <mxGeometry x="220" y="80" width="40" height="40" as="geometry" />
        </mxCell>
        <mxCell id="29" value="&lt;br&gt;" style="endArrow=classic;html=1;fontSize=16;exitX=0;exitY=0.5;exitDx=0;exitDy=0;" parent="1" source="30" edge="1">
          <mxGeometry x="-1" y="-20" width="50" height="50" relative="1" as="geometry">
            <mxPoint x="320" y="165" as="sourcePoint" />
            <mxPoint x="270" y="159.99999999999994" as="targetPoint" />
            <mxPoint x="20" y="20" as="offset" />
          </mxGeometry>
        </mxCell>
        <mxCell id="30" value=".db" style="ellipse;whiteSpace=wrap;html=1;aspect=fixed;fontSize=15;fillColor=#E6E6E6;" parent="1" vertex="1">
          <mxGeometry x="300" y="120" width="40" height="40" as="geometry" />
        </mxCell>
        <mxCell id="34" value=".log" style="ellipse;whiteSpace=wrap;html=1;aspect=fixed;fontSize=15;fillColor=#E6E6E6;" parent="1" vertex="1">
          <mxGeometry x="160" y="80" width="40" height="40" as="geometry" />
        </mxCell>
        <mxCell id="35" value="&lt;br&gt;" style="endArrow=classic;html=1;fontSize=16;exitX=0.5;exitY=1;exitDx=0;exitDy=0;entryX=1;entryY=0;entryDx=0;entryDy=0;" parent="1" source="36" edge="1" target="19">
          <mxGeometry x="-1" y="-20" width="50" height="50" relative="1" as="geometry">
            <mxPoint x="345" y="285" as="sourcePoint" />
            <mxPoint x="370" y="310" as="targetPoint" />
            <mxPoint x="20" y="20" as="offset" />
          </mxGeometry>
        </mxCell>
        <mxCell id="36" value=".conf" style="ellipse;whiteSpace=wrap;html=1;aspect=fixed;fontSize=15;fillColor=#E6E6E6;" parent="1" vertex="1">
          <mxGeometry x="360" y="250" width="40" height="40" as="geometry" />
        </mxCell>
        <mxCell id="37" value="&lt;br&gt;" style="endArrow=classic;html=1;fontSize=16;entryX=0.5;entryY=1;entryDx=0;entryDy=0;exitX=0.398;exitY=0.022;exitDx=0;exitDy=0;exitPerimeter=0;" parent="1" target="38" edge="1" source="19">
          <mxGeometry x="-1" y="-20" width="50" height="50" relative="1" as="geometry">
            <mxPoint x="320" y="310" as="sourcePoint" />
            <mxPoint x="410" y="355" as="targetPoint" />
            <mxPoint x="20" y="20" as="offset" />
          </mxGeometry>
        </mxCell>
        <mxCell id="38" value=".log" style="ellipse;whiteSpace=wrap;html=1;aspect=fixed;fontSize=15;fillColor=#E6E6E6;" parent="1" vertex="1">
          <mxGeometry x="300" y="250" width="40" height="40" as="geometry" />
        </mxCell>
        <mxCell id="9mBYy3MYTDiPbNTP9v6o-38" value="TCP&lt;font style=&quot;font-size: 16px;&quot;&gt;&lt;br style=&quot;font-size: 16px;&quot;&gt;&lt;/font&gt;" style="endArrow=classic;startArrow=classic;html=1;fontSize=16;entryX=0.5;entryY=0;entryDx=0;entryDy=0;exitX=0.25;exitY=1;exitDx=0;exitDy=0;" parent="1" source="2" target="18" edge="1">
          <mxGeometry width="50" height="50" relative="1" as="geometry">
            <mxPoint x="90" y="210" as="sourcePoint" />
            <mxPoint x="185" y="305" as="targetPoint" />
          </mxGeometry>
        </mxCell>
        <mxCell id="9mBYy3MYTDiPbNTP9v6o-39" value="SR" style="rounded=0;whiteSpace=wrap;html=1;fontSize=26;fillColor=#982EBF;" parent="1" vertex="1">
          <mxGeometry x="490" y="405" width="100" height="60" as="geometry" />
        </mxCell>
        <mxCell id="9mBYy3MYTDiPbNTP9v6o-40" value="ST" style="rounded=0;whiteSpace=wrap;html=1;fontSize=26;fillColor=#8F8F8F;" parent="1" vertex="1">
          <mxGeometry x="450" y="145" width="120" height="60" as="geometry" />
        </mxCell>
        <mxCell id="9mBYy3MYTDiPbNTP9v6o-55" value="&lt;br&gt;" style="endArrow=classic;html=1;fontSize=16;exitX=0;exitY=0.5;exitDx=0;exitDy=0;entryX=1;entryY=0;entryDx=0;entryDy=0;" parent="1" source="9mBYy3MYTDiPbNTP9v6o-56" edge="1">
          <mxGeometry x="-1" y="-20" width="50" height="50" relative="1" as="geometry">
            <mxPoint x="620" y="165" as="sourcePoint" />
            <mxPoint x="570" y="150" as="targetPoint" />
            <mxPoint x="20" y="20" as="offset" />
          </mxGeometry>
        </mxCell>
        <mxCell id="9mBYy3MYTDiPbNTP9v6o-56" value=".conf" style="ellipse;whiteSpace=wrap;html=1;aspect=fixed;fontSize=15;fillColor=#E6E6E6;" parent="1" vertex="1">
          <mxGeometry x="620" y="130" width="40" height="40" as="geometry" />
        </mxCell>
        <mxCell id="9mBYy3MYTDiPbNTP9v6o-57" value="&lt;br&gt;" style="endArrow=classic;html=1;fontSize=16;exitX=0;exitY=0.5;exitDx=0;exitDy=0;" parent="1" edge="1">
          <mxGeometry x="-1" y="-20" width="50" height="50" relative="1" as="geometry">
            <mxPoint x="620" y="200" as="sourcePoint" />
            <mxPoint x="570" y="200" as="targetPoint" />
            <mxPoint x="20" y="20" as="offset" />
          </mxGeometry>
        </mxCell>
        <mxCell id="9mBYy3MYTDiPbNTP9v6o-58" value=".db" style="ellipse;whiteSpace=wrap;html=1;aspect=fixed;fontSize=15;fillColor=#E6E6E6;" parent="1" vertex="1">
          <mxGeometry x="620" y="180" width="40" height="40" as="geometry" />
        </mxCell>
        <mxCell id="9mBYy3MYTDiPbNTP9v6o-59" value="" style="endArrow=classic;html=1;fontSize=16;exitX=0.25;exitY=0;exitDx=0;exitDy=0;entryX=0.5;entryY=1;entryDx=0;entryDy=0;" parent="1" target="9mBYy3MYTDiPbNTP9v6o-60" edge="1">
          <mxGeometry x="1" y="-22" width="50" height="50" relative="1" as="geometry">
            <mxPoint x="480" y="145" as="sourcePoint" />
            <mxPoint x="480" y="105" as="targetPoint" />
            <mxPoint x="-2" y="-10" as="offset" />
          </mxGeometry>
        </mxCell>
        <mxCell id="9mBYy3MYTDiPbNTP9v6o-60" value=".log" style="ellipse;whiteSpace=wrap;html=1;aspect=fixed;fontSize=15;fillColor=#E6E6E6;" parent="1" vertex="1">
          <mxGeometry x="460" y="80" width="40" height="40" as="geometry" />
        </mxCell>
        <mxCell id="MQIV-eKYQExPM50J4Lxa-38" value="&lt;br&gt;" style="endArrow=classic;html=1;fontSize=16;exitX=0;exitY=0.5;exitDx=0;exitDy=0;entryX=1;entryY=0;entryDx=0;entryDy=0;" parent="1" source="MQIV-eKYQExPM50J4Lxa-39" target="9mBYy3MYTDiPbNTP9v6o-39" edge="1">
          <mxGeometry x="-1" y="-20" width="50" height="50" relative="1" as="geometry">
            <mxPoint x="640" y="410" as="sourcePoint" />
            <mxPoint x="590" y="395" as="targetPoint" />
            <mxPoint x="20" y="20" as="offset" />
          </mxGeometry>
        </mxCell>
        <mxCell id="MQIV-eKYQExPM50J4Lxa-39" value=".conf" style="ellipse;whiteSpace=wrap;html=1;aspect=fixed;fontSize=15;fillColor=#E6E6E6;" parent="1" vertex="1">
          <mxGeometry x="610" y="375" width="40" height="40" as="geometry" />
        </mxCell>
        <mxCell id="MQIV-eKYQExPM50J4Lxa-42" value="" style="endArrow=classic;html=1;fontSize=16;entryX=0.5;entryY=1;entryDx=0;entryDy=0;exitX=0.75;exitY=0;exitDx=0;exitDy=0;" parent="1" source="9mBYy3MYTDiPbNTP9v6o-39" target="MQIV-eKYQExPM50J4Lxa-43" edge="1">
          <mxGeometry x="1" y="-22" width="50" height="50" relative="1" as="geometry">
            <mxPoint x="600" y="425" as="sourcePoint" />
            <mxPoint x="600" y="405" as="targetPoint" />
            <mxPoint x="-2" y="-10" as="offset" />
          </mxGeometry>
        </mxCell>
        <mxCell id="MQIV-eKYQExPM50J4Lxa-43" value=".log" style="ellipse;whiteSpace=wrap;html=1;aspect=fixed;fontSize=15;fillColor=#E6E6E6;" parent="1" vertex="1">
          <mxGeometry x="550" y="340" width="40" height="40" as="geometry" />
        </mxCell>
        <mxCell id="MQIV-eKYQExPM50J4Lxa-45" value="&lt;br&gt;" style="endArrow=classic;html=1;fontSize=16;exitX=0;exitY=0.5;exitDx=0;exitDy=0;" parent="1" edge="1">
          <mxGeometry x="-1" y="-20" width="50" height="50" relative="1" as="geometry">
            <mxPoint x="640" y="449.5" as="sourcePoint" />
            <mxPoint x="590" y="449.5" as="targetPoint" />
            <mxPoint x="20" y="20" as="offset" />
          </mxGeometry>
        </mxCell>
        <mxCell id="MQIV-eKYQExPM50J4Lxa-46" value=".db" style="ellipse;whiteSpace=wrap;html=1;aspect=fixed;fontSize=15;fillColor=#E6E6E6;" parent="1" vertex="1">
          <mxGeometry x="610" y="430" width="40" height="40" as="geometry" />
        </mxCell>
        <mxCell id="MQIV-eKYQExPM50J4Lxa-48" value="&lt;font style=&quot;font-size: 20px;&quot;&gt;Arquitetura do Sistema&amp;nbsp;&lt;/font&gt;" style="text;html=1;align=center;verticalAlign=middle;resizable=0;points=[];autosize=1;strokeColor=none;fillColor=none;" parent="1" vertex="1">
          <mxGeometry x="130" y="40" width="230" height="40" as="geometry" />
        </mxCell>
        <mxCell id="jql8G7GLL5WXimbimyJf-40" value="UDP" style="endArrow=classic;html=1;rounded=1;labelBorderColor=none;fontSize=14;entryX=0.5;entryY=1;entryDx=0;entryDy=0;exitX=0.5;exitY=0;exitDx=0;exitDy=0;" edge="1" parent="1" source="9mBYy3MYTDiPbNTP9v6o-39" target="9mBYy3MYTDiPbNTP9v6o-40">
          <mxGeometry x="0.2518" y="1" relative="1" as="geometry">
            <mxPoint x="500" y="460" as="sourcePoint" />
            <mxPoint x="260" y="460" as="targetPoint" />
            <mxPoint as="offset" />
          </mxGeometry>
        </mxCell>
        <mxCell id="jql8G7GLL5WXimbimyJf-42" value="PDU" style="shape=message;html=1;outlineConnect=0;fontSize=16;labelPosition=center;verticalLabelPosition=middle;align=center;verticalAlign=middle;spacingTop=13;" vertex="1" parent="1">
          <mxGeometry x="400.00467808513713" y="405.0045205675815" width="50" height="30" as="geometry" />
        </mxCell>
        <mxCell id="jql8G7GLL5WXimbimyJf-45" value="PDU" style="shape=message;html=1;outlineConnect=0;fontSize=16;labelPosition=center;verticalLabelPosition=middle;align=center;verticalAlign=middle;spacingTop=13;" vertex="1" parent="1">
          <mxGeometry x="280.00467808513713" y="435.0045205675815" width="50" height="30" as="geometry" />
        </mxCell>
        <mxCell id="jql8G7GLL5WXimbimyJf-48" value="UDP" style="endArrow=classic;html=1;rounded=1;labelBorderColor=none;fontSize=14;entryX=1;entryY=0.5;entryDx=0;entryDy=0;exitX=0;exitY=0.5;exitDx=0;exitDy=0;" edge="1" parent="1" source="9mBYy3MYTDiPbNTP9v6o-40" target="2">
          <mxGeometry x="-0.0023" y="-2" relative="1" as="geometry">
            <mxPoint x="440" y="275" as="sourcePoint" />
            <mxPoint x="410" y="75" as="targetPoint" />
            <mxPoint y="-1" as="offset" />
          </mxGeometry>
        </mxCell>
        <mxCell id="jql8G7GLL5WXimbimyJf-50" value="UDP" style="endArrow=classic;html=1;rounded=1;labelBorderColor=none;fontSize=14;entryX=1;entryY=0.25;entryDx=0;entryDy=0;exitX=0.25;exitY=1;exitDx=0;exitDy=0;" edge="1" parent="1" source="9mBYy3MYTDiPbNTP9v6o-40" target="19">
          <mxGeometry x="0.3379" y="5" relative="1" as="geometry">
            <mxPoint x="460" y="185" as="sourcePoint" />
            <mxPoint x="280" y="200" as="targetPoint" />
            <mxPoint as="offset" />
          </mxGeometry>
        </mxCell>
        <mxCell id="jql8G7GLL5WXimbimyJf-53" value="UDP" style="endArrow=classic;html=1;rounded=1;labelBorderColor=none;fontSize=14;exitX=0.25;exitY=1;exitDx=0;exitDy=0;entryX=0.75;entryY=0;entryDx=0;entryDy=0;" edge="1" parent="1" source="9mBYy3MYTDiPbNTP9v6o-40" target="18">
          <mxGeometry x="0.0621" relative="1" as="geometry">
            <mxPoint x="490" y="215" as="sourcePoint" />
            <mxPoint x="160" y="270" as="targetPoint" />
            <mxPoint as="offset" />
            <Array as="points">
              <mxPoint x="320" y="230" />
            </Array>
          </mxGeometry>
        </mxCell>
        <mxCell id="jql8G7GLL5WXimbimyJf-55" value="UDP" style="endArrow=classic;html=1;rounded=1;labelBorderColor=none;fontSize=14;entryX=0;entryY=0;entryDx=0;entryDy=0;exitX=1;exitY=1;exitDx=0;exitDy=0;" edge="1" parent="1" source="19" target="9mBYy3MYTDiPbNTP9v6o-39">
          <mxGeometry x="-0.0846" y="-1" relative="1" as="geometry">
            <mxPoint x="490" y="215" as="sourcePoint" />
            <mxPoint x="390" y="340" as="targetPoint" />
            <mxPoint as="offset" />
          </mxGeometry>
        </mxCell>
        <mxCell id="jql8G7GLL5WXimbimyJf-57" value="UDP" style="endArrow=classic;html=1;rounded=1;labelBorderColor=none;fontSize=14;entryX=0;entryY=0;entryDx=0;entryDy=0;exitX=1;exitY=1;exitDx=0;exitDy=0;" edge="1" parent="1" source="18" target="9mBYy3MYTDiPbNTP9v6o-39">
          <mxGeometry x="-0.0846" y="-1" relative="1" as="geometry">
            <mxPoint x="390" y="385" as="sourcePoint" />
            <mxPoint x="500" y="415" as="targetPoint" />
            <mxPoint as="offset" />
          </mxGeometry>
        </mxCell>
        <mxCell id="jql8G7GLL5WXimbimyJf-58" value="UDP" style="endArrow=classic;html=1;rounded=1;labelBorderColor=none;fontSize=14;entryX=0;entryY=0;entryDx=0;entryDy=0;exitX=1;exitY=0.75;exitDx=0;exitDy=0;" edge="1" parent="1" source="2" target="9mBYy3MYTDiPbNTP9v6o-39">
          <mxGeometry x="0.327" y="-2" relative="1" as="geometry">
            <mxPoint x="460" y="185" as="sourcePoint" />
            <mxPoint x="280" y="200" as="targetPoint" />
            <mxPoint as="offset" />
            <Array as="points">
              <mxPoint x="450" y="240" />
            </Array>
          </mxGeometry>
        </mxCell>
      </root>
    </mxGraphModel>
  </diagram>
</mxfile>
